<svg width="17" height="17" viewBox="0 0 17 17" fill="none" xmlns="http://www.w3.org/2000/svg">
<path d="M14.1667 6.375H7.79167C7.00926 6.375 6.375 7.00926 6.375 7.79167V14.1667C6.375 14.9491 7.00926 15.5833 7.79167 15.5833H14.1667C14.9491 15.5833 15.5833 14.9491 15.5833 14.1667V7.79167C15.5833 7.00926 14.9491 6.375 14.1667 6.375Z" stroke="white" stroke-width="2" stroke-linecap="round" stroke-linejoin="round"/>
<path d="M3.54167 10.6251H2.83334C2.45762 10.6251 2.09728 10.4758 1.8316 10.2101C1.56593 9.94447 1.41667 9.58414 1.41667 9.20841V2.83341C1.41667 2.45769 1.56593 2.09736 1.8316 1.83168C2.09728 1.566 2.45762 1.41675 2.83334 1.41675H9.20834C9.58406 1.41675 9.9444 1.566 10.2101 1.83168C10.4757 2.09736 10.625 2.45769 10.625 2.83341V3.54175" stroke="white" stroke-width="2" stroke-linecap="round" stroke-linejoin="round"/>
</svg>
